<?xml version="1.0" encoding="UTF-8" standalone="no"?>
<svg
   xmlns:dc="http://purl.org/dc/elements/1.1/"
   xmlns:cc="http://creativecommons.org/ns#"
   xmlns:rdf="http://www.w3.org/1999/02/22-rdf-syntax-ns#"
   xmlns:svg="http://www.w3.org/2000/svg"
   xmlns="http://www.w3.org/2000/svg"
   viewBox="0 0 400 400"
   xml:space="preserve"
   id="svg2"
   version="1.1"><metadata
     id="metadata8"><rdf:RDF><cc:Work
         rdf:about=""><dc:format>image/svg+xml</dc:format><dc:type
           rdf:resource="http://purl.org/dc/dcmitype/StillImage" /></cc:Work></rdf:RDF></metadata><defs
     id="defs6"><clipPath
       id="clipPath18"
       clipPathUnits="userSpaceOnUse"><path
         id="path16"
         d="M 0,300 H 300 V 0 H 0 Z" /></clipPath></defs><g
     transform="matrix(1.3333333,0,0,-1.3333333,0,400)"
     id="g10"><g
       id="g12"><g
         clip-path="url(#clipPath18)"
         id="g14"><g
           transform="translate(153.2832,178.1025)"
           id="g20"><path
             id="path22"
             style="fill:#3b2331;fill-opacity:1;fill-rule:nonzero;stroke:none"
             d="m 0,0 18.281,-19.857 9.283,-9.175 c 3.623,-3.533 7.706,-5.999 9.025,-4.68 1.319,1.319 -1.779,6.119 -5.486,9.907 -3.359,3.431 -6.733,6.848 -10.113,10.259 -7.019,7.084 -14.069,14.14 -21.072,21.241 -4.349,4.409 -8.379,-1.88 -11.324,-4.864 -4.071,-4.124 -8.151,-8.238 -12.224,-12.359 -4.074,-4.121 -8.141,-8.247 -12.186,-12.396 -1.795,-1.84 -4.805,-4.004 -6.05,-6.239 -1.006,-1.805 -3.107,-3.643 -1.228,-5.522 1.879,-1.878 4.597,0.567 6.99,2.742 2.905,2.638 5.636,5.504 8.418,8.271 5.327,5.297 15.918,15.95 15.918,15.95 l 5.367,6.389 -0.111,-7.539 c 0.018,-36.149 0.022,-72.3 0.006,-108.45 -0.003,-5.987 -0.786,-6.617 -6.8,-5.838 -42.753,5.539 -74.164,34.562 -82.833,76.537 -8.105,39.242 12.37,80.668 46.919,100.205 33.689,19.05 78.379,14.25 107.605,-10.966 C 75.023,29.26 85.823,9.198 89.859,-12.311 95.461,-42.16 84.836,-73.324 63.636,-94.78 c -10.352,-10.478 -23.111,-18.562 -37.117,-23.167 -6.717,-2.209 -14.624,-4.368 -21.771,-4.297 -5.659,0.056 -4.842,4.702 -4.842,9.384 -0.001,36.429 -0.001,72.859 -0.001,109.288 z" /></g></g></g></g></svg>